<mxfile host="Electron" agent="Mozilla/5.0 (X11; Linux x86_64) AppleWebKit/537.36 (KHTML, like Gecko) draw.io/26.0.16 Chrome/132.0.6834.210 Electron/34.3.1 Safari/537.36" version="26.0.16" pages="3">
  <diagram name="1" id="raGk_D8FTLXwgUmbc4jt">
    <mxGraphModel dx="2074" dy="1231" grid="1" gridSize="10" guides="1" tooltips="1" connect="1" arrows="1" fold="1" page="1" pageScale="1" pageWidth="540" pageHeight="140" math="0" shadow="0">
      <root>
        <mxCell id="0" />
        <mxCell id="1" parent="0" />
        <mxCell id="zCmTgFsGxIaxcytd8qIg-1" value="-" style="text;html=1;align=center;verticalAlign=middle;whiteSpace=wrap;rounded=0;fillColor=#dae8fc;strokeColor=#6c8ebf;fontSize=14;fontColor=#333333;" parent="1" vertex="1">
          <mxGeometry x="40" y="40" width="40" height="40" as="geometry" />
        </mxCell>
        <mxCell id="zCmTgFsGxIaxcytd8qIg-2" value="1" style="text;html=1;align=center;verticalAlign=middle;whiteSpace=wrap;rounded=0;fillColor=#d5e8d4;strokeColor=#82b366;fontSize=14;fontColor=#333333;" parent="1" vertex="1">
          <mxGeometry x="80" y="40" width="40" height="40" as="geometry" />
        </mxCell>
        <mxCell id="zCmTgFsGxIaxcytd8qIg-3" value="2" style="text;html=1;align=center;verticalAlign=middle;whiteSpace=wrap;rounded=0;fillColor=#ffe6cc;strokeColor=#d79b00;fontSize=14;fontColor=#333333;" parent="1" vertex="1">
          <mxGeometry x="120" y="40" width="40" height="40" as="geometry" />
        </mxCell>
        <mxCell id="zCmTgFsGxIaxcytd8qIg-4" value="1" style="text;html=1;align=center;verticalAlign=middle;whiteSpace=wrap;rounded=0;fillColor=#fff2cc;strokeColor=#d6b656;fontSize=14;fontColor=#333333;" parent="1" vertex="1">
          <mxGeometry x="160" y="40" width="40" height="40" as="geometry" />
        </mxCell>
        <mxCell id="zCmTgFsGxIaxcytd8qIg-15" value="1" style="text;html=1;align=center;verticalAlign=middle;whiteSpace=wrap;rounded=0;fillColor=#fff2cc;strokeColor=#d6b656;fontSize=14;fontColor=#333333;" parent="1" vertex="1">
          <mxGeometry x="340" y="40" width="40" height="40" as="geometry" />
        </mxCell>
        <mxCell id="zCmTgFsGxIaxcytd8qIg-16" value="2" style="text;html=1;align=center;verticalAlign=middle;whiteSpace=wrap;rounded=0;fillColor=#ffe6cc;strokeColor=#d79b00;fontSize=14;fontColor=#333333;" parent="1" vertex="1">
          <mxGeometry x="380" y="40" width="40" height="40" as="geometry" />
        </mxCell>
        <mxCell id="zCmTgFsGxIaxcytd8qIg-17" value="1" style="text;html=1;align=center;verticalAlign=middle;whiteSpace=wrap;rounded=0;fillColor=#d5e8d4;strokeColor=#82b366;fontSize=14;fontColor=#333333;" parent="1" vertex="1">
          <mxGeometry x="420" y="40" width="40" height="40" as="geometry" />
        </mxCell>
        <mxCell id="zCmTgFsGxIaxcytd8qIg-18" value="-" style="text;html=1;align=center;verticalAlign=middle;whiteSpace=wrap;rounded=0;fillColor=#dae8fc;strokeColor=#6c8ebf;fontSize=14;fontColor=#333333;" parent="1" vertex="1">
          <mxGeometry x="460" y="40" width="40" height="40" as="geometry" />
        </mxCell>
        <mxCell id="zCmTgFsGxIaxcytd8qIg-19" value="" style="shape=doubleArrow;whiteSpace=wrap;html=1;fillColor=#f5f5f5;fontColor=#333333;strokeColor=#666666;" parent="1" vertex="1">
          <mxGeometry x="240" y="40" width="60" height="40" as="geometry" />
        </mxCell>
        <mxCell id="AQBsLTuEEX6UYwU5JBV7-1" value="x" style="text;html=1;align=center;verticalAlign=middle;whiteSpace=wrap;rounded=0;fontSize=10;" parent="1" vertex="1">
          <mxGeometry x="40" y="80" width="160" height="20" as="geometry" />
        </mxCell>
        <mxCell id="jVVXr_Ei0zPa7iM5kjB4-1" value="return" style="text;html=1;align=center;verticalAlign=middle;whiteSpace=wrap;rounded=0;fontSize=10;" parent="1" vertex="1">
          <mxGeometry x="340" y="80" width="160" height="20" as="geometry" />
        </mxCell>
      </root>
    </mxGraphModel>
  </diagram>
  <diagram name="2_1" id="4_LbquYtUVdZRixzMAgo">
    <mxGraphModel dx="378" dy="586" grid="1" gridSize="10" guides="1" tooltips="1" connect="1" arrows="1" fold="1" page="1" pageScale="1" pageWidth="240" pageHeight="160" math="0" shadow="0">
      <root>
        <mxCell id="6zlG6SULL828l9e3iRUW-0" />
        <mxCell id="6zlG6SULL828l9e3iRUW-1" parent="6zlG6SULL828l9e3iRUW-0" />
        <mxCell id="rzI3SQk8eNlgi4ya9pjQ-1" style="edgeStyle=orthogonalEdgeStyle;rounded=0;orthogonalLoop=1;jettySize=auto;html=1;exitX=0.5;exitY=0;exitDx=0;exitDy=0;entryX=0.5;entryY=0;entryDx=0;entryDy=0;fillColor=#dae8fc;strokeColor=#6c8ebf;" parent="6zlG6SULL828l9e3iRUW-1" source="6zlG6SULL828l9e3iRUW-2" target="6zlG6SULL828l9e3iRUW-5" edge="1">
          <mxGeometry relative="1" as="geometry">
            <Array as="points">
              <mxPoint x="60" y="40" />
              <mxPoint x="180" y="40" />
            </Array>
          </mxGeometry>
        </mxCell>
        <mxCell id="6zlG6SULL828l9e3iRUW-2" value="-" style="text;html=1;align=center;verticalAlign=middle;whiteSpace=wrap;rounded=0;fillColor=#dae8fc;strokeColor=#6c8ebf;fontSize=14;fontColor=#333333;" parent="6zlG6SULL828l9e3iRUW-1" vertex="1">
          <mxGeometry x="40" y="60" width="40" height="40" as="geometry" />
        </mxCell>
        <mxCell id="6zlG6SULL828l9e3iRUW-3" value="1" style="text;html=1;align=center;verticalAlign=middle;whiteSpace=wrap;rounded=0;fillColor=#f5f5f5;strokeColor=#666666;fontSize=14;fontColor=#333333;" parent="6zlG6SULL828l9e3iRUW-1" vertex="1">
          <mxGeometry x="80" y="60" width="40" height="40" as="geometry" />
        </mxCell>
        <mxCell id="6zlG6SULL828l9e3iRUW-4" value="2" style="text;html=1;align=center;verticalAlign=middle;whiteSpace=wrap;rounded=0;fillColor=#f5f5f5;strokeColor=#666666;fontSize=14;fontColor=#333333;" parent="6zlG6SULL828l9e3iRUW-1" vertex="1">
          <mxGeometry x="120" y="60" width="40" height="40" as="geometry" />
        </mxCell>
        <mxCell id="6zlG6SULL828l9e3iRUW-5" value="1" style="text;html=1;align=center;verticalAlign=middle;whiteSpace=wrap;rounded=0;fillColor=#dae8fc;strokeColor=#6c8ebf;fontSize=14;fontColor=#333333;" parent="6zlG6SULL828l9e3iRUW-1" vertex="1">
          <mxGeometry x="160" y="60" width="40" height="40" as="geometry" />
        </mxCell>
        <mxCell id="5SCf8q0DhuCAgvhcE2Xj-0" value="x" style="text;html=1;align=center;verticalAlign=middle;whiteSpace=wrap;rounded=0;fontSize=10;" parent="6zlG6SULL828l9e3iRUW-1" vertex="1">
          <mxGeometry x="40" y="100" width="160" height="20" as="geometry" />
        </mxCell>
      </root>
    </mxGraphModel>
  </diagram>
  <diagram name="2_2" id="5iNkxlEmQDLkvs9ZGI2w">
    <mxGraphModel dx="454" dy="703" grid="1" gridSize="10" guides="1" tooltips="1" connect="1" arrows="1" fold="1" page="1" pageScale="1" pageWidth="240" pageHeight="160" math="0" shadow="0">
      <root>
        <mxCell id="VimvMkrVLMduYlR2iWos-0" />
        <mxCell id="VimvMkrVLMduYlR2iWos-1" parent="VimvMkrVLMduYlR2iWos-0" />
        <mxCell id="VimvMkrVLMduYlR2iWos-3" value="-" style="text;html=1;align=center;verticalAlign=middle;whiteSpace=wrap;rounded=0;fillColor=#f5f5f5;strokeColor=#666666;fontSize=14;fontColor=#333333;" vertex="1" parent="VimvMkrVLMduYlR2iWos-1">
          <mxGeometry x="40" y="59.97" width="40" height="40" as="geometry" />
        </mxCell>
        <mxCell id="VimvMkrVLMduYlR2iWos-4" style="edgeStyle=orthogonalEdgeStyle;rounded=0;orthogonalLoop=1;jettySize=auto;html=1;exitX=0.5;exitY=0;exitDx=0;exitDy=0;entryX=0.5;entryY=0;entryDx=0;entryDy=0;fillColor=#dae8fc;strokeColor=#6c8ebf;" edge="1" parent="VimvMkrVLMduYlR2iWos-1" source="VimvMkrVLMduYlR2iWos-5" target="VimvMkrVLMduYlR2iWos-6">
          <mxGeometry relative="1" as="geometry">
            <Array as="points">
              <mxPoint x="100" y="39.97" />
              <mxPoint x="140" y="39.97" />
            </Array>
          </mxGeometry>
        </mxCell>
        <mxCell id="VimvMkrVLMduYlR2iWos-5" value="1" style="text;html=1;align=center;verticalAlign=middle;whiteSpace=wrap;rounded=0;fillColor=#dae8fc;strokeColor=#6c8ebf;fontSize=14;fontColor=#333333;" vertex="1" parent="VimvMkrVLMduYlR2iWos-1">
          <mxGeometry x="80" y="59.97" width="40" height="40" as="geometry" />
        </mxCell>
        <mxCell id="VimvMkrVLMduYlR2iWos-6" value="2" style="text;html=1;align=center;verticalAlign=middle;whiteSpace=wrap;rounded=0;fillColor=#dae8fc;strokeColor=#6c8ebf;fontSize=14;fontColor=#333333;" vertex="1" parent="VimvMkrVLMduYlR2iWos-1">
          <mxGeometry x="120" y="59.97" width="40" height="40" as="geometry" />
        </mxCell>
        <mxCell id="VimvMkrVLMduYlR2iWos-7" value="1" style="text;html=1;align=center;verticalAlign=middle;whiteSpace=wrap;rounded=0;fillColor=#f5f5f5;strokeColor=#666666;fontSize=14;fontColor=#333333;" vertex="1" parent="VimvMkrVLMduYlR2iWos-1">
          <mxGeometry x="160" y="59.97" width="40" height="40" as="geometry" />
        </mxCell>
        <mxCell id="VimvMkrVLMduYlR2iWos-8" value="x" style="text;html=1;align=center;verticalAlign=middle;whiteSpace=wrap;rounded=0;fontSize=10;" vertex="1" parent="VimvMkrVLMduYlR2iWos-1">
          <mxGeometry x="40" y="99.97" width="160" height="20" as="geometry" />
        </mxCell>
      </root>
    </mxGraphModel>
  </diagram>
</mxfile>
